<svg xmlns="http://www.w3.org/2000/svg" viewBox="0 0 349 73.24"><defs><style>.cls-1{fill:#fff;}.cls-2{fill:#a21418;}</style></defs><title>logo</title><g id="Layer_2" data-name="Layer 2"><g id="Layer_3" data-name="Layer 3"><path class="cls-1" d="M342.82,50.65H349V22.58h-6.18ZM320.65,39.47H313.8l3.41-8.72ZM302.7,50.65h6.81l2.34-5.94h10.91l2.41,5.94h7L319.94,22.58h-5.11ZM273.4,25.28a9.36,9.36,0,0,0-3.61-2.66,11.87,11.87,0,0,0-4.32-.75,11.66,11.66,0,0,0-3.33.48,8.57,8.57,0,0,0-2.91,1.46,7.42,7.42,0,0,0-2.07,2.5,7.71,7.71,0,0,0-.77,3.53,7.5,7.5,0,0,0,.62,3.23,6.22,6.22,0,0,0,1.62,2.14,9,9,0,0,0,2.3,1.41,28,28,0,0,0,2.66,1l2.65.87a10.42,10.42,0,0,1,2.3,1.09,5.28,5.28,0,0,1,1.63,1.63,4.48,4.48,0,0,1,.61,2.44,4.26,4.26,0,0,1-.55,2.18,5.54,5.54,0,0,1-1.4,1.6,6,6,0,0,1-1.92,1,6.89,6.89,0,0,1-2.14.34,7.57,7.57,0,0,1-3.83-.93,6.84,6.84,0,0,1-2.53-2.48L255.8,47.2a9.2,9.2,0,0,0,3.94,3.19,12.54,12.54,0,0,0,4.9,1,10.5,10.5,0,0,0,6.28-2.14,7.82,7.82,0,0,0,2.14-2.56,7.21,7.21,0,0,0,.81-3.43,6.6,6.6,0,0,0-1.07-4,8.21,8.21,0,0,0-2.65-2.36,16,16,0,0,0-3.47-1.43,29.84,29.84,0,0,1-3.47-1.21,8.54,8.54,0,0,1-2.66-1.72,4,4,0,0,1-1.07-3,4.74,4.74,0,0,1,.52-2.28,4.47,4.47,0,0,1,1.37-1.58,6,6,0,0,1,1.92-.92,8.42,8.42,0,0,1,2.18-.29,6.16,6.16,0,0,1,5.43,2.73Zm-31.32-2.7h-2.85V50.65h2.85Zm-31.44,15h4.76l7.69,13h3.49l-8.09-13.32A7.88,7.88,0,0,0,223.82,35a7,7,0,0,0,1.85-4.93,6.6,6.6,0,0,0-2.48-5.63,11,11,0,0,0-6.76-1.87h-8.64V50.65h2.85Zm0-12.41h5.08a12,12,0,0,1,3.23.38,5.61,5.61,0,0,1,2.12,1.05,4,4,0,0,1,1.15,1.56,5.22,5.22,0,0,1,0,3.81,3.91,3.91,0,0,1-1.15,1.55A6.27,6.27,0,0,1,219,34.6a11.6,11.6,0,0,1-3.23.39h-5.08ZM175.28,43.28h14.35l3.09,7.37h3.33L183.84,22.58h-2.77L168.86,50.65h3.33Zm7.18-17.37,6.06,14.75H176.35Zm-48.65-3.33h-4.36V50.65h2.86V26.39h.07l10.15,24.26H144l10.15-24.26h.08V50.65h2.85V22.58h-4.36l-9.47,22.84ZM96.94,43.28h14.35l3.1,7.37h3.33L105.51,22.58h-2.78L90.52,50.65h3.33Zm7.18-17.37,6.06,14.75H98Z"/><path class="cls-2" d="M289.78,42.79a5.48,5.48,0,1,0-5.47-5.47,5.47,5.47,0,0,0,5.47,5.47"/><path class="cls-2" d="M31.18,42.56a4.37,4.37,0,1,1-4.37-4.37,4.37,4.37,0,0,1,4.37,4.37M36.25,39a.58.58,0,0,0,0-.14L57.76,15.66,53.5,11.74,32.65,34.35A10.11,10.11,0,0,0,19,49L0,69.54H7.86l16-17.28a10.11,10.11,0,0,0,12.84-7.42h25V39Z"/><path class="cls-1" d="M67.11,10.07A4.37,4.37,0,1,1,62.74,5.7a4.37,4.37,0,0,1,4.37,4.37m5.74,0A10.11,10.11,0,1,0,60,19.84V56h5.57V19.81a10.12,10.12,0,0,0,7.26-9.7"/><path class="cls-2" d="M67.11,63.08a4.37,4.37,0,1,1-4.37-4.37,4.37,4.37,0,0,1,4.37,4.37m5.74.05A10.11,10.11,0,1,0,62.74,73.24,10.12,10.12,0,0,0,72.85,63.13"/></g></g></svg>